PathFileType  4	(X/Y/Z) C:\Users\antoi\Documents\MyRepositories\mobilecap\ResultsAnalysis
DataRate	CameraRate	NumFrames	NumMarkers	Units	OrigDataRate	OrigDataStartFrame	OrigNumFrames
100.0	100.0	4	51	mm	100.0	86	136
Frame#	Time	r_knee			r_shank_antsup			r_ankle			r_calc			r_5meta			r_toe			L_knee			L_shank_antsup			L_ankle			L_calc			L_5meta			L_toe			r_sh2			r_sh3			r_sh4			L_sh2			L_sh3			r_thigh1			r_thigh2			r_thigh3			r_thigh4			r_thigh5			L_thigh1			L_thigh2			L_thigh3			L_thigh4			r.ASIS			r.PSIS			L.ASIS			L.PSIS			C7			R_Shoulder			L_Shoulder			R_Sternum			L_Sternum			R_humerus			R_elbow_med			R_elbow_lat			R_forearm			R_wrist_radius			R_wrist_ulna			L_humerus			L_elbow_med			L_elbow_lat			L_forearm			L_wrist_radius			L_wrist_ulna			R_HJC			L_HJC			R_HJC_reg			L_HJC_reg			
		X1	Y1	Z1	X2	Y2	Z2	X3	Y3	Z3	X4	Y4	Z4	X5	Y5	Z5	X6	Y6	Z6	X7	Y7	Z7	X8	Y8	Z8	X9	Y9	Z9	X10	Y10	Z10	X11	Y11	Z11	X12	Y12	Z12	X13	Y13	Z13	X14	Y14	Z14	X15	Y15	Z15	X16	Y16	Z16	X17	Y17	Z17	X18	Y18	Z18	X19	Y19	Z19	X20	Y20	Z20	X21	Y21	Z21	X22	Y22	Z22	X23	Y23	Z23	X24	Y24	Z24	X25	Y25	Z25	X26	Y26	Z26	X27	Y27	Z27	X28	Y28	Z28	X29	Y29	Z29	X30	Y30	Z30	X31	Y31	Z31	X32	Y32	Z32	X33	Y33	Z33	X34	Y34	Z34	X35	Y35	Z35	X36	Y36	Z36	X37	Y37	Z37	X38	Y38	Z38	X39	Y39	Z39	X40	Y40	Z40	X41	Y41	Z41	X42	Y42	Z42	X43	Y43	Z43	X44	Y44	Z44	X45	Y45	Z45	X46	Y46	Z46	X47	Y47	Z47	X48	Y48	Z48	X49	Y49	Z49	X50	Y50	Z50	X51	Y51	Z51	

86	0.85000000	1021.53229	571.06806	-22.69203	982.27357	449.83072	-45.94901	697.11163	270.46242	-106.43404	644.44761	298.16933	-169.52223	718.57241	114.82620	-66.06822	780.23903	110.71739	-121.50588	874.13865	533.42691	-364.78498	909.61792	424.44479	-336.98334	782.43381	95.48304	-314.71300	716.95655	69.98121	-263.74380	917.54520	36.57503	-346.77674	951.78769	57.46398	-278.56100	912.83408	365.38002	-79.21238	921.82458	483.03461	-10.95647	851.72659	392.31149	-27.77887	830.27323	425.80947	-383.77960	842.75446	306.37451	-382.21519	1033.45000	820.56988	-44.67596	1077.73999	718.06277	-50.01001	1053.16573	680.58294	1.06150	947.66949	780.06519	19.00196	997.80909	674.18337	7.99244	944.06368	789.19516	-396.15494	958.13597	653.47472	-376.13517	838.03041	771.82281	-425.28477	850.09972	636.02815	-396.77344	921.31366	1046.07252	-76.86811	718.34479	1071.99923	-167.33404	929.78177	1046.28691	-340.42980	719.85695	1076.14136	-264.40391	797.64860	1582.12049	-227.86633	856.28881	1513.83162	-36.81771	869.36001	1518.04383	-399.58816	930.21181	1495.36608	-195.35571	929.81143	1491.09777	-243.12111	847.73344	1344.35730	39.60059	753.85038	1131.14108	-10.42062	767.47436	1153.21998	69.09109	853.67378	1002.19913	88.44142	880.21637	883.35311	101.50720	846.08365	876.33112	126.61037	890.30684	1347.66920	-475.86265	828.29718	1129.44780	-436.96785	865.10506	1147.75327	-507.53948	979.97996	1028.63691	-476.49687	1031.82999	922.56884	-493.72209	1001.69315	912.11364	-531.02057	843.15327	963.32113	-114.79178	852.84759	954.16932	-327.75350	854.84940	959.20901	-119.03521	857.56038	966.62946	-292.91854	
87	0.86000000	1042.12857	575.43779	-23.05235	1006.68946	452.45866	-46.03294	728.45233	261.60063	-105.92847	674.24728	286.05857	-169.21689	758.55130	107.83427	-64.84738	820.47327	106.86695	-120.08567	877.61024	533.63444	-364.41510	912.13464	424.34373	-336.68213	782.78680	96.12017	-314.47206	717.37219	70.15038	-263.55658	917.64189	36.59253	-346.68056	951.98250	57.35415	-278.47872	940.32959	365.23436	-79.19563	944.74977	483.21698	-10.99696	878.39729	389.72565	-27.58513	832.79556	426.21384	-383.50936	844.43663	306.71923	-381.93444	1049.17163	825.18545	-45.56946	1095.63686	723.78035	-50.91616	1072.07333	686.25680	0.47510	965.23594	783.55788	19.30213	1016.96633	678.32561	7.97906	952.21573	788.42392	-395.35119	964.07562	652.64011	-375.27141	845.86074	772.83043	-424.70687	855.93307	636.71743	-396.34179	933.69661	1047.21932	-77.08794	730.54029	1072.72119	-166.94057	940.63075	1045.92287	-340.27550	731.90653	1076.78212	-263.98110	810.40384	1582.84305	-227.36253	868.16575	1514.16259	-36.24523	882.85483	1519.47709	-398.70578	942.64919	1495.75849	-194.42379	942.46262	1491.66564	-242.18482	858.36246	1344.70185	40.08771	764.15725	1131.92638	-10.74487	777.18334	1153.94069	68.94312	862.00903	1002.31819	89.32104	887.45942	883.25479	102.79008	853.06688	876.60408	127.50758	905.97535	1350.06966	-474.96359	846.58681	1130.68535	-436.91539	883.44533	1149.60657	-507.32255	1001.31733	1033.63736	-474.97306	1056.15780	929.00528	-491.35251	1026.34510	917.55748	-528.78059	855.22540	964.32869	-114.17910	864.05981	954.04237	-327.13285	866.86732	959.68206	-119.02800	869.31260	966.94704	-292.63669	
88	0.87000000	1061.82116	579.50695	-23.52170	1030.48759	454.88514	-45.99631	760.46060	251.75089	-105.32892	704.76454	272.68724	-168.72461	799.69871	100.46646	-63.46694	861.50587	102.79826	-118.61134	881.01020	533.90981	-364.02247	914.53464	424.33170	-336.36643	783.09590	96.82912	-314.23958	717.68840	70.36866	-263.30708	917.75191	36.60852	-346.58189	952.19676	57.25694	-278.40452	967.64673	364.77628	-79.00079	967.01885	483.04291	-11.12717	904.81372	386.70864	-27.37698	835.22585	426.69521	-383.23907	846.06449	307.14093	-381.66205	1064.58308	829.38288	-46.53519	1112.84474	728.94545	-51.93274	1090.37585	691.48176	-0.18118	982.53952	786.86547	19.53775	1035.54793	682.19333	7.87251	960.29601	787.60463	-394.50552	969.84754	651.79603	-374.38107	853.61508	773.81337	-424.09668	861.66153	637.39542	-395.89503	946.10838	1048.17213	-77.21652	742.75101	1073.34875	-166.47706	951.96255	1045.61148	-340.23344	743.99493	1077.33711	-263.50699	823.19812	1583.43724	-226.76592	880.04936	1514.31366	-35.59465	896.38527	1520.79180	-397.72819	955.12773	1496.02549	-193.40269	955.14297	1492.10683	-241.16640	869.02887	1344.87340	40.65118	774.53909	1132.51368	-10.96809	786.94620	1154.47761	68.87330	870.48682	1002.30986	90.26800	894.93206	883.04615	104.13046	860.25016	876.73309	128.42475	921.58308	1352.33097	-474.05652	864.57582	1131.92077	-436.92432	901.50973	1151.40545	-507.15185	1022.26102	1038.67175	-473.43234	1080.12318	935.53887	-488.88629	1050.70362	923.09388	-526.42532	867.40927	965.17115	-113.62206	875.51226	953.95377	-326.56428	879.02237	960.04120	-118.98330	881.24624	967.17164	-292.46634	
89	0.88000000	1080.58838	583.20615	-24.10583	1053.62172	457.08003	-45.85896	793.17798	241.01795	-104.61545	736.13262	258.19471	-168.05080	841.85060	92.83747	-61.88466	903.25000	98.62092	-116.96975	884.36154	534.24763	-363.60330	916.83953	424.41231	-336.03826	783.36860	97.60909	-313.99926	717.88306	70.67472	-262.97830	917.86154	36.62807	-346.47478	952.42779	57.17571	-278.33539	994.78808	364.03404	-78.62276	988.62838	482.49206	-11.35998	930.98063	383.27881	-27.15892	837.56712	427.26204	-382.94851	847.62725	307.64932	-381.38189	1079.66264	833.11309	-47.53122	1129.32832	733.50416	-53.04417	1108.03826	696.12776	-0.89342	999.45536	789.89319	19.71763	1053.49815	685.73509	7.68825	968.31050	786.73708	-393.62109	975.47033	650.93687	-373.48288	861.32449	774.75549	-423.45281	867.28120	638.06855	-395.42470	958.53694	1048.92202	-77.25091	754.96696	1073.88877	-165.92387	963.80554	1045.39334	-340.33354	756.12155	1077.79526	-262.96843	836.04216	1583.89753	-226.07151	891.94212	1514.27180	-34.86370	909.95668	1521.96406	-396.66668	967.65377	1496.17005	-192.29820	967.86284	1492.41691	-240.06456	879.74140	1344.85394	41.28626	784.99920	1132.87467	-11.08252	796.77306	1154.81158	68.88622	879.12839	1002.14729	91.26100	902.66305	882.71912	105.50638	867.65200	876.69467	129.34995	937.09815	1354.41588	-473.15433	882.30431	1133.09592	-437.02242	919.32209	1153.12483	-507.02714	1042.79795	1043.68744	-471.86694	1103.71494	942.12406	-486.32956	1074.75440	928.67088	-523.95832	879.71454	965.84096	-113.13391	887.21780	953.93176	-326.06481	891.29695	960.32146	-118.89511	893.36043	967.30610	-292.42252	
